<?xml version="1.0" standalone="no"?>
<!DOCTYPE svg PUBLIC "-//W3C//DTD SVG 20010904//EN"
 "http://www.w3.org/TR/2001/REC-SVG-20010904/DTD/svg10.dtd">
<svg version="1.0" xmlns="http://www.w3.org/2000/svg"
 width="1000.000000pt" height="1000.000000pt" viewBox="0 0 1000.000000 1000.000000"
 preserveAspectRatio="xMidYMid meet">
<metadata>
Created by potrace 1.11, written by Peter Selinger 2001-2013
</metadata>
<g transform="translate(0.000000,1000.000000) scale(0.100000,-0.100000)"
fill="#000000" stroke="none">
<path d="M1655 7072 c-3 -3 -5 -85 -5 -181 l0 -176 213 -39 c116 -21 215 -40
218 -42 4 -2 7 -739 7 -1638 l1 -1634 -92 -17 c-102 -19 -106 -19 -227 -41
-47 -8 -93 -18 -102 -20 -16 -5 -18 -22 -18 -183 l0 -178 1408 0 1409 0 0 457
0 458 -223 0 c-256 1 -230 14 -239 -118 -4 -47 -8 -101 -10 -120 -2 -19 -6
-78 -10 -130 -4 -52 -9 -98 -11 -101 -2 -3 -308 -6 -681 -6 l-678 -1 1 1627
c1 894 2 1631 3 1637 1 6 58 21 129 33 70 13 138 25 152 28 14 2 54 10 90 16
l65 12 0 170 c1 94 -1 175 -3 181 -3 11 -1386 17 -1397 6z"/>
<path d="M5039 7070 c-4 -19 -3 -234 1 -240 3 -5 41 -11 85 -15 44 -3 96 -8
115 -10 42 -4 200 -17 218 -18 6 0 12 -10 13 -21 4 -84 3 -3540 -1 -3546 -3
-5 -32 -12 -65 -15 -33 -3 -73 -7 -90 -10 -16 -2 -71 -7 -122 -10 -50 -4 -100
-8 -110 -10 -10 -2 -25 -4 -33 -4 -13 -1 -15 -20 -14 -118 1 -65 2 -121 3
-124 1 -3 269 -6 596 -6 l595 0 0 124 c0 67 -3 123 -7 124 -5 1 -21 2 -38 4
-16 1 -59 5 -95 9 -36 3 -94 8 -130 11 -36 4 -74 8 -85 10 -11 2 -34 4 -51 4
l-30 1 0 808 1 807 520 0 c286 -1 551 -4 590 -8 335 -36 592 -230 685 -517 35
-107 42 -182 45 -480 1 -163 5 -314 9 -335 3 -22 8 -59 11 -82 8 -66 52 -196
90 -265 40 -72 109 -140 169 -167 76 -35 131 -44 284 -47 l152 -3 0 130 0 129
-37 1 c-148 2 -206 21 -263 86 -48 55 -77 141 -86 252 -3 42 -7 209 -8 371 -3
257 -6 308 -25 397 -41 195 -115 346 -225 457 -98 99 -195 155 -401 231 -19 7
-19 8 5 18 107 46 145 65 215 112 125 83 227 193 304 327 138 241 168 505 96
853 -30 146 -132 332 -245 445 -190 191 -472 308 -810 336 -96 8 -1829 12
-1831 4z m1791 -294 c447 -38 713 -249 795 -631 4 -16 8 -91 10 -165 7 -245
-40 -403 -165 -558 -145 -178 -366 -274 -687 -298 -121 -9 -962 -11 -976 -2
-14 8 -19 1649 -6 1658 11 8 933 4 1029 -4z"/>
</g>
</svg>
