<?xml version="1.0" encoding="UTF-8" standalone="no"?>
<svg
   xmlns:dc="http://purl.org/dc/elements/1.1/"
   xmlns:cc="http://creativecommons.org/ns#"
   xmlns:rdf="http://www.w3.org/1999/02/22-rdf-syntax-ns#"
   xmlns:svg="http://www.w3.org/2000/svg"
   xmlns="http://www.w3.org/2000/svg"
   xmlns:sodipodi="http://sodipodi.sourceforge.net/DTD/sodipodi-0.dtd"
   xmlns:inkscape="http://www.inkscape.org/namespaces/inkscape"
   inkscape:export-ydpi="95.999992"
   inkscape:export-xdpi="95.999992"
   inkscape:export-filename="E:\Projects\liam-russell-site-frontend\src\icon.png"
   width="1000"
   height="1000"
   viewBox="0 0 264.58332 264.58332"
   version="1.1"
   id="svg8"
   inkscape:version="1.0 (4035a4fb49, 2020-05-01)"
   sodipodi:docname="icon.svg"
   style="shape-rendering:auto">
  <title
     id="title4568">Liam Russell</title>
  <defs
     id="defs2" />
  <sodipodi:namedview
     units="px"
     id="base"
     pagecolor="#ffffff"
     bordercolor="#666666"
     borderopacity="1.0"
     inkscape:pageopacity="0.0"
     inkscape:pageshadow="2"
     inkscape:zoom="0.49497475"
     inkscape:cx="803.80045"
     inkscape:cy="446.11052"
     inkscape:document-units="mm"
     inkscape:current-layer="layer1"
     showgrid="false"
     inkscape:window-width="1920"
     inkscape:window-height="1018"
     inkscape:window-x="-6"
     inkscape:window-y="-6"
     inkscape:window-maximized="1"
     fit-margin-top="50"
     fit-margin-left="50"
     fit-margin-right="50"
     fit-margin-bottom="50"
     inkscape:document-rotation="0" />
  <metadata
     id="metadata5">
    <rdf:RDF>
      <cc:Work
         rdf:about="">
        <dc:format>image/svg+xml</dc:format>
        <dc:type
           rdf:resource="http://purl.org/dc/dcmitype/StillImage" />
        <dc:title>Liam Russell</dc:title>
      </cc:Work>
    </rdf:RDF>
  </metadata>
  <g
     inkscape:label="Layer 1"
     inkscape:groupmode="layer"
     id="layer1"
     transform="translate(443.89375,96.930483)">
    <g
       transform="translate(-6.3534783,27.324177)"
       id="g12">
      <path
         d="m -261.29564,-46.854978 q 16.62633,0 25.50792,7.701489 8.95263,7.701489 8.95263,22.273909 0,8.6075455 -4.76049,15.4784766 -4.76056,6.8709379 -13.42899,9.9666332 9.59212,2.5671652 13.78419,9.2115802 4.2632,6.568917 4.2632,16.611056 v 10.042131 q 0,5.813871 1.70525,8.607546 1.70531,2.793681 5.18689,3.020196 l 3.48158,0.22653 v 6.719927 h -5.4 q -7.5316,0 -10.51583,-5.436345 -2.98422,-5.436345 -2.98422,-13.288837 v -9.740118 q 0,-9.966633 -6.03948,-15.780497 -5.96842,-5.889376 -16.69738,-6.115892 h -26.0053 v 42.735705 l 11.58159,1.057067 v 6.568917 h -31.61846 v -6.568917 l 11.58159,-1.057067 v -94.532001 l -11.58159,-1.057067 v -6.644422 z m -22.95003,51.7962824 h 21.95529 q 13.99739,0 20.46318,-5.9648815 6.4658,-5.9648748 6.4658,-15.9315079 0,-10.570669 -6.4658,-16.38454 -6.46579,-5.813864 -19.46844,-5.813864 h -22.95003 z"
         style="font-style:normal;font-variant:normal;font-weight:300;font-stretch:normal;font-size:23.0112px;line-height:1.25;font-family:'Roboto Slab';-inkscape-font-specification:'Roboto Slab Light';text-align:center;letter-spacing:0px;word-spacing:0px;text-anchor:middle;fill:#0941a4;fill-opacity:1;stroke:none;stroke-width:1.56256"
         id="path4510"
         inkscape:connector-curvature="0" />
      <path
         d="m -393.89375,63.004476 v -9.513602 l 11.58152,-2.114134 v -86.603982 l -11.58152,-2.114134 v -9.589107 h 11.58152 13.9973 11.58153 v 9.589107 l -11.58153,2.114134 V 51.37674 h 35.95247 l 1.06579,-12.609296 h 11.93678 v 24.237032 z"
         style="font-style:normal;font-variant:normal;font-weight:normal;font-stretch:normal;font-size:23.0112px;line-height:1.25;font-family:'Roboto Slab';-inkscape-font-specification:'Roboto Slab';text-align:center;letter-spacing:0px;word-spacing:0px;text-anchor:middle;fill:#000000;fill-opacity:1;stroke:none;stroke-width:1.56256"
         id="path4502"
         inkscape:connector-curvature="0" />
    </g>
  </g>
</svg>
