<?xml version="1.0" encoding="UTF-8" standalone="no"?>
<!-- Created with Inkscape (http://www.inkscape.org/) -->

<svg
   xmlns:dc="http://purl.org/dc/elements/1.1/"
   xmlns:cc="http://creativecommons.org/ns#"
   xmlns:rdf="http://www.w3.org/1999/02/22-rdf-syntax-ns#"
   xmlns:svg="http://www.w3.org/2000/svg"
   xmlns="http://www.w3.org/2000/svg"
   xmlns:sodipodi="http://sodipodi.sourceforge.net/DTD/sodipodi-0.dtd"
   xmlns:inkscape="http://www.inkscape.org/namespaces/inkscape"
   width="1097.7875mm"
   height="285.06927mm"
   viewBox="0 0 1097.7874 285.06927"
   version="1.1"
   id="svg8"
   inkscape:version="0.92.4 (5da689c313, 2019-01-14)"
   sodipodi:docname="logo.svg"
   style="shape-rendering:auto">
  <title
     id="title4568">Liam Russell</title>
  <defs
     id="defs2" />
  <sodipodi:namedview
     id="base"
     pagecolor="#ffffff"
     bordercolor="#666666"
     borderopacity="1.0"
     inkscape:pageopacity="0.0"
     inkscape:pageshadow="2"
     inkscape:zoom="0.35"
     inkscape:cx="2323.0322"
     inkscape:cy="-1.2873611"
     inkscape:document-units="mm"
     inkscape:current-layer="layer1"
     showgrid="false"
     inkscape:window-width="1920"
     inkscape:window-height="1027"
     inkscape:window-x="-8"
     inkscape:window-y="-8"
     inkscape:window-maximized="1"
     fit-margin-top="50"
     fit-margin-left="50"
     fit-margin-right="50"
     fit-margin-bottom="50" />
  <metadata
     id="metadata5">
    <rdf:RDF>
      <cc:Work
         rdf:about="">
        <dc:format>image/svg+xml</dc:format>
        <dc:type
           rdf:resource="http://purl.org/dc/dcmitype/StillImage" />
        <dc:title>Liam Russell</dc:title>
      </cc:Work>
    </rdf:RDF>
  </metadata>
  <g
     inkscape:label="Layer 1"
     inkscape:groupmode="layer"
     id="layer1"
     transform="translate(443.89375,98.51608)">
    <g
       aria-label="LIAMRUSSELL"
       transform="matrix(6.3236698,0,0,6.7199408,-579.47344,-242.92935)"
       style="font-style:normal;font-variant:normal;font-weight:normal;font-stretch:normal;font-size:9.58799267px;line-height:1.25;font-family:'Encode Sans Condensed';-inkscape-font-specification:'Encode Sans Condensed, ';text-align:center;letter-spacing:0px;word-spacing:0px;text-anchor:middle;fill:#000000;fill-opacity:1;stroke:none;stroke-width:0.23969984"
       id="text4487">
      <path
         d="M 29.346834,45.526268 V 44.110541 L 31.17829,43.795935 V 30.908324 l -1.831456,-0.314606 v -1.426963 h 1.831456 2.213478 1.831457 v 1.426963 l -1.831457,0.314606 v 12.887611 h 5.68538 l 0.168539,-1.8764 h 1.887636 v 3.606733 z"
         style="font-style:normal;font-variant:normal;font-weight:normal;font-stretch:normal;font-size:23.01118279px;font-family:'Roboto Slab';-inkscape-font-specification:'Roboto Slab';text-align:center;text-anchor:middle;stroke-width:0.23969984"
         id="path4502"
         inkscape:connector-curvature="0" />
      <path
         d="m 42.818713,30.593718 v -1.426963 h 5.876391 v 1.426963 l -1.831456,0.314606 v 12.887611 l 1.831456,0.314606 v 1.415727 H 42.818713 V 44.110541 L 44.65017,43.795935 V 30.908324 Z"
         style="font-style:normal;font-variant:normal;font-weight:normal;font-stretch:normal;font-size:23.01118279px;font-family:'Roboto Slab';-inkscape-font-specification:'Roboto Slab';text-align:center;text-anchor:middle;stroke-width:0.23969984"
         id="path4504"
         inkscape:connector-curvature="0" />
      <path
         d="m 50.11083,44.110541 1.213481,-0.168539 5.719088,-14.775247 h 1.898872 l 5.617964,14.775247 1.202245,0.168539 v 1.415727 h -4.696619 v -1.415727 l 1.235952,-0.213483 -1.078649,-3.011229 h -6.550546 l -1.112357,3.011229 1.235952,0.213483 v 1.415727 H 50.11083 Z m 5.247179,-5.07864 h 5.190999 l -2.53932,-7.022456 h -0.06741 z"
         style="font-style:normal;font-variant:normal;font-weight:normal;font-stretch:normal;font-size:23.01118279px;font-family:'Roboto Slab';-inkscape-font-specification:'Roboto Slab';text-align:center;text-anchor:middle;stroke-width:0.23969984"
         id="path4506"
         inkscape:connector-curvature="0" />
      <path
         d="m 83.133226,32.425175 -0.05618,-0.01124 -5.292123,13.112329 h -1.471906 l -5.292123,-13.101093 -0.05618,0.01124 0.224719,6.617962 v 4.741562 l 1.831456,0.314606 v 1.415727 h -5.876391 v -1.415727 l 1.831457,-0.314606 V 30.908324 l -1.831457,-0.314606 v -1.426963 h 1.831457 2.831454 l 5.213471,13.292104 h 0.06742 l 5.202235,-13.292104 h 4.674146 v 1.426963 l -1.831456,0.314606 v 12.887611 l 1.831456,0.314606 v 1.415727 H 81.08829 v -1.415727 l 1.831457,-0.314606 v -4.741562 z"
         style="font-style:normal;font-variant:normal;font-weight:normal;font-stretch:normal;font-size:23.01118279px;font-family:'Roboto Slab';-inkscape-font-specification:'Roboto Slab';text-align:center;text-anchor:middle;stroke-width:0.23969984"
         id="path4508"
         inkscape:connector-curvature="0" />
      <path
         d="m 95.335447,29.177991 q 2.629207,0 4.033698,1.146065 1.415725,1.146065 1.415725,3.314599 0,1.280896 -0.7528,2.303365 -0.752812,1.02247 -2.123595,1.483143 1.51685,0.382022 2.179765,1.370783 0.67416,0.977526 0.67416,2.471905 v 1.494378 q 0,0.865167 0.26966,1.280896 0.26967,0.41573 0.82023,0.449438 l 0.55056,0.03371 v 0.999998 h -0.85393 q -1.19101,0 -1.662922,-0.808987 -0.471909,-0.808987 -0.471909,-1.977523 v -1.449435 q 0,-1.483143 -0.955054,-2.348309 -0.943818,-0.876403 -2.640443,-0.910111 h -4.11235 v 6.359536 l 1.831456,0.157303 v 0.977526 H 88.53771 v -0.977526 l 1.831456,-0.157303 V 30.324056 L 88.53771,30.166753 v -0.988762 z m -3.629205,7.707848 h 3.471902 q 2.213478,0 3.235947,-0.887639 1.02247,-0.887638 1.02247,-2.370781 0,-1.57303 -1.02247,-2.438197 -1.022469,-0.865166 -3.078644,-0.865166 h -3.629205 z"
         style="font-style:normal;font-variant:normal;font-weight:300;font-stretch:normal;font-size:23.01118279px;font-family:'Roboto Slab';-inkscape-font-specification:'Roboto Slab Light';text-align:center;text-anchor:middle;fill:#0941a4;fill-opacity:1;stroke-width:0.23969984"
         id="path4510"
         inkscape:connector-curvature="0" />
      <path
         d="m 108.87474,29.166755 v 0.999998 l -1.83146,0.146067 v 9.943797 q 0,2.089883 1.23595,3.235948 1.23596,1.134829 3.22472,1.134829 2.02246,0 3.29212,-1.134829 1.26966,-1.134829 1.26966,-3.235948 V 30.31282 l -1.83145,-0.146067 v -0.999998 h 4.99999 v 0.999998 l -1.83146,0.146067 v 9.943797 q 0,2.674151 -1.64045,4.089878 -1.62921,1.415728 -4.25841,1.415728 -2.58427,0 -4.191,-1.415728 -1.60674,-1.426963 -1.60674,-4.089878 V 30.31282 l -1.83146,-0.146067 v -0.999998 h 1.83146 1.33707 z"
         style="font-style:normal;font-variant:normal;font-weight:300;font-stretch:normal;font-size:23.01118279px;font-family:'Roboto Slab';-inkscape-font-specification:'Roboto Slab Light';text-align:center;text-anchor:middle;fill:#0941a4;fill-opacity:1;stroke-width:0.23969984"
         id="path4512"
         inkscape:connector-curvature="0" />
      <path
         d="m 132.26794,34.020677 h -1.10112 l -0.19101,-2.314602 q -0.60674,-0.764043 -1.65168,-1.191008 -1.04494,-0.438201 -2.44943,-0.438201 -2.02247,0 -3.1573,0.876402 -1.12359,0.876402 -1.12359,2.17977 0,1.235952 1.01123,2.067411 1.02247,0.820223 3.52808,1.449435 2.64045,0.674156 4.01123,1.820221 1.38202,1.146064 1.38202,3.022464 0,1.955052 -1.5955,3.112353 -1.5955,1.157301 -4.07864,1.157301 -1.75281,0 -3.25842,-0.617977 -1.49438,-0.617976 -2.44944,-1.76404 v -2.865162 h 1.10113 l 0.19101,2.393253 q 0.74157,0.842694 1.89887,1.280895 1.1573,0.438202 2.51685,0.438202 1.93258,0 3.12358,-0.853931 1.20225,-0.853931 1.20225,-2.258422 0,-1.337075 -1,-2.17977 -1,-0.853931 -3.48314,-1.505614 -2.68538,-0.674156 -4.0674,-1.752805 -1.38202,-1.07865 -1.38202,-2.910106 0,-1.8764 1.57303,-3.056173 1.57303,-1.179772 4.05617,-1.179772 1.78651,0 3.17977,0.617976 1.40449,0.617976 2.21347,1.674153 z"
         style="font-style:normal;font-variant:normal;font-weight:300;font-stretch:normal;font-size:23.01118279px;font-family:'Roboto Slab';-inkscape-font-specification:'Roboto Slab Light';text-align:center;text-anchor:middle;fill:#0941a4;fill-opacity:1;stroke-width:0.23969984"
         id="path4514"
         inkscape:connector-curvature="0" />
      <path
         d="m 145.97578,34.020677 h -1.10112 l -0.19102,-2.314602 q -0.60674,-0.764043 -1.65168,-1.191008 -1.04494,-0.438201 -2.44943,-0.438201 -2.02247,0 -3.1573,0.876402 -1.12359,0.876402 -1.12359,2.17977 0,1.235952 1.01123,2.067411 1.02247,0.820223 3.52809,1.449435 2.64044,0.674156 4.01122,1.820221 1.38202,1.146064 1.38202,3.022464 0,1.955052 -1.5955,3.112353 -1.5955,1.157301 -4.07864,1.157301 -1.75281,0 -3.25842,-0.617977 -1.49438,-0.617976 -2.44943,-1.76404 v -2.865162 h 1.10112 l 0.19101,2.393253 q 0.74157,0.842694 1.89887,1.280895 1.1573,0.438202 2.51685,0.438202 1.93258,0 3.12359,-0.853931 1.20224,-0.853931 1.20224,-2.258422 0,-1.337075 -1,-2.17977 -0.99999,-0.853931 -3.48313,-1.505614 -2.68539,-0.674156 -4.06741,-1.752805 -1.38202,-1.07865 -1.38202,-2.910106 0,-1.8764 1.57303,-3.056173 1.57303,-1.179772 4.05617,-1.179772 1.78651,0 3.17977,0.617976 1.40449,0.617976 2.21348,1.674153 z"
         style="font-style:normal;font-variant:normal;font-weight:300;font-stretch:normal;font-size:23.01118279px;font-family:'Roboto Slab';-inkscape-font-specification:'Roboto Slab Light';text-align:center;text-anchor:middle;fill:#0941a4;fill-opacity:1;stroke-width:0.23969984"
         id="path4516"
         inkscape:connector-curvature="0" />
      <path
         d="m 158.00946,37.604938 h -6.70785 v 6.786501 h 7.73031 l 0.10113,-2.449432 h 1.19101 v 3.584261 h -12.19099 v -0.988762 l 1.83146,-0.146067 V 30.31282 l -1.83146,-0.146067 v -0.999998 h 1.83146 10.30335 v 3.595498 h -1.19101 l -0.10112,-2.449433 h -7.67414 v 6.146053 h 6.70785 z"
         style="font-style:normal;font-variant:normal;font-weight:300;font-stretch:normal;font-size:23.01118279px;font-family:'Roboto Slab';-inkscape-font-specification:'Roboto Slab Light';text-align:center;text-anchor:middle;fill:#0941a4;fill-opacity:1;stroke-width:0.23969984"
         id="path4518"
         inkscape:connector-curvature="0" />
      <path
         d="m 162.60495,45.526268 v -0.988762 l 1.83146,-0.146067 V 30.31282 l -1.83146,-0.146067 v -0.999998 h 1.83146 1.34831 1.83146 v 0.999998 l -1.83146,0.146067 v 14.078619 h 6.79774 l 0.10112,-2.303365 h 1.19101 v 3.438194 z"
         style="font-style:normal;font-variant:normal;font-weight:300;font-stretch:normal;font-size:23.01118279px;font-family:'Roboto Slab';-inkscape-font-specification:'Roboto Slab Light';text-align:center;text-anchor:middle;fill:#0941a4;fill-opacity:1;stroke-width:0.23969984"
         id="path4520"
         inkscape:connector-curvature="0" />
      <path
         d="m 175.86334,45.526268 v -0.988762 l 1.83146,-0.146067 V 30.31282 l -1.83146,-0.146067 v -0.999998 h 1.83146 1.34831 1.83146 v 0.999998 l -1.83146,0.146067 v 14.078619 h 6.79774 l 0.10112,-2.303365 h 1.19101 v 3.438194 z"
         style="font-style:normal;font-variant:normal;font-weight:300;font-stretch:normal;font-size:23.01118279px;font-family:'Roboto Slab';-inkscape-font-specification:'Roboto Slab Light';text-align:center;text-anchor:middle;fill:#0941a4;fill-opacity:1;stroke-width:0.23969984"
         id="path4522"
         inkscape:connector-curvature="0" />
    </g>
    <g
       aria-label="FULL STACK WEB DEVELOPER"
       style="font-style:normal;font-weight:normal;font-size:10.71586514px;line-height:1.25;font-family:sans-serif;text-align:center;letter-spacing:0px;word-spacing:0px;text-anchor:middle;fill:#000000;fill-opacity:1;stroke:none;stroke-width:0.26789659"
       id="text4495"
       transform="matrix(6.518795,0,0,6.518795,-579.47344,-242.92935)">
      <path
         d="m 32.507433,53.842957 q 0.130019,0 0.210031,0.09001 0.09001,0.08001 0.09001,0.210031 0,0.130019 -0.09001,0.220032 -0.08001,0.09001 -0.210031,0.09001 h -3.310488 v 3.300486 q 0,0.130019 -0.09001,0.220033 -0.08001,0.08001 -0.210031,0.08001 -0.130019,0 -0.220032,-0.08001 -0.08001,-0.09001 -0.08001,-0.220033 V 50.54247 q 0,-0.130019 0.08001,-0.210031 0.09001,-0.09001 0.220032,-0.09001 h 4.810709 q 0.120018,0 0.210031,0.09001 0.09001,0.08001 0.09001,0.210031 0,0.120018 -0.09001,0.210031 -0.09001,0.09001 -0.210031,0.09001 h -4.510665 v 3.000443 z"
         style="font-style:normal;font-variant:normal;font-weight:300;font-stretch:normal;font-size:10.00147438px;font-family:comfortaa;-inkscape-font-specification:'comfortaa Light';text-align:center;text-anchor:middle;fill:#000000;fill-opacity:1;stroke-width:0.26789659"
         id="path4525"
         inkscape:connector-curvature="0" />
      <path
         d="m 35.457868,50.54247 q 0,-0.14002 0.08001,-0.220032 0.09001,-0.08001 0.220032,-0.08001 0.140021,0 0.220033,0.08001 0.08001,0.08001 0.08001,0.220032 v 4.960731 q 0,0.61009 0.300045,1.090161 0.310045,0.480071 0.850125,0.750111 0.550081,0.27004 1.250184,0.27004 0.700104,0 1.240183,-0.27004 0.550081,-0.27004 0.860127,-0.750111 0.310046,-0.480071 0.310046,-1.090161 V 50.54247 q 0,-0.14002 0.08001,-0.220032 0.09001,-0.08001 0.220033,-0.08001 0.140021,0 0.220032,0.08001 0.08001,0.08001 0.08001,0.220032 v 4.960731 q 0,0.790117 -0.390057,1.410208 -0.380056,0.61009 -1.070158,0.960142 -0.6801,0.34005 -1.550229,0.34005 -0.870128,0 -1.56023,-0.34005 -0.6801,-0.350052 -1.060156,-0.960142 -0.380056,-0.620091 -0.380056,-1.410208 z"
         style="font-style:normal;font-variant:normal;font-weight:300;font-stretch:normal;font-size:10.00147438px;font-family:comfortaa;-inkscape-font-specification:'comfortaa Light';text-align:center;text-anchor:middle;fill:#000000;fill-opacity:1;stroke-width:0.26789659"
         id="path4527"
         inkscape:connector-curvature="0" />
      <path
         d="m 48.177556,57.513498 q 0.130019,0 0.210031,0.08001 0.09001,0.07001 0.09001,0.190028 0,0.120017 -0.09001,0.200029 -0.08001,0.07001 -0.210031,0.07001 h -4.410651 q -0.120017,0 -0.210031,-0.08001 -0.09001,-0.09001 -0.09001,-0.220033 V 50.54247 q 0,-0.130019 0.09001,-0.210031 0.09001,-0.09001 0.210031,-0.09001 0.13002,0 0.210031,0.09001 0.09001,0.08001 0.09001,0.210031 v 6.971028 z"
         style="font-style:normal;font-variant:normal;font-weight:300;font-stretch:normal;font-size:10.00147438px;font-family:comfortaa;-inkscape-font-specification:'comfortaa Light';text-align:center;text-anchor:middle;fill:#000000;fill-opacity:1;stroke-width:0.26789659"
         id="path4529"
         inkscape:connector-curvature="0" />
      <path
         d="m 54.448012,57.513498 q 0.130019,0 0.210031,0.08001 0.09001,0.07001 0.09001,0.190028 0,0.120017 -0.09001,0.200029 -0.08001,0.07001 -0.210031,0.07001 h -4.41065 q -0.120018,0 -0.210031,-0.08001 -0.09001,-0.09001 -0.09001,-0.220033 V 50.54247 q 0,-0.130019 0.09001,-0.210031 0.09001,-0.09001 0.210031,-0.09001 0.130019,0 0.210031,0.09001 0.09001,0.08001 0.09001,0.210031 v 6.971028 z"
         style="font-style:normal;font-variant:normal;font-weight:300;font-stretch:normal;font-size:10.00147438px;font-family:comfortaa;-inkscape-font-specification:'comfortaa Light';text-align:center;text-anchor:middle;fill:#000000;fill-opacity:1;stroke-width:0.26789659"
         id="path4531"
         inkscape:connector-curvature="0" />
      <path
         d="m 61.188224,50.142411 q 0.730108,0 1.340198,0.350052 0.61009,0.350051 0.900132,0.840124 0.04001,0.07001 0.04001,0.160023 0,0.08001 -0.05001,0.150022 -0.04001,0.06001 -0.120018,0.100015 -0.04001,0.02 -0.120018,0.02 -0.180026,0 -0.280041,-0.150022 -0.590087,-0.870128 -1.710252,-0.870128 -0.830122,0 -1.300192,0.380056 -0.460067,0.370054 -0.460067,1.040153 0,0.560083 0.460067,0.940139 0.460068,0.380056 1.42021,0.540079 1.260186,0.210031 1.840271,0.780115 0.580086,0.560083 0.580086,1.480218 0,0.690102 -0.310046,1.200177 -0.300044,0.510076 -0.860127,0.780115 -0.550081,0.27004 -1.280189,0.27004 -0.940138,0 -1.63024,-0.380056 -0.690102,-0.390057 -1.030152,-1.060156 -0.03,-0.06001 -0.03,-0.120018 0,-0.120018 0.08001,-0.200029 0.09001,-0.08001 0.230033,-0.08001 0.20003,0 0.290043,0.190028 0.27004,0.500074 0.800118,0.780115 0.54008,0.27004 1.29019,0.27004 0.860127,0 1.350199,-0.430064 0.500074,-0.430063 0.500074,-1.22018 0,-0.6801 -0.490072,-1.120165 -0.480071,-0.450066 -1.430211,-0.580085 -1.110164,-0.160024 -1.750258,-0.720106 -0.630093,-0.570084 -0.630093,-1.380204 0,-0.580085 0.290043,-1.02015 0.300044,-0.450067 0.830122,-0.690102 0.54008,-0.250037 1.240183,-0.250037 z"
         style="font-style:normal;font-variant:normal;font-weight:300;font-stretch:normal;font-size:10.00147438px;font-family:comfortaa;-inkscape-font-specification:'comfortaa Light';text-align:center;text-anchor:middle;fill:#000000;fill-opacity:1;stroke-width:0.26789659"
         id="path4533"
         inkscape:connector-curvature="0" />
      <path
         d="m 70.074221,50.242426 q 0.120018,0 0.190028,0.08001 0.08001,0.07001 0.08001,0.190028 0,0.120017 -0.08001,0.200029 -0.07001,0.07001 -0.190028,0.07001 h -2.530373 v 6.971027 q 0,0.130019 -0.09001,0.220033 -0.08001,0.08001 -0.210031,0.08001 -0.130019,0 -0.220032,-0.08001 -0.08001,-0.09001 -0.08001,-0.220033 v -6.971027 h -2.530373 q -0.120018,0 -0.20003,-0.07001 -0.07001,-0.08001 -0.07001,-0.200029 0,-0.120018 0.07001,-0.190028 0.08001,-0.08001 0.20003,-0.08001 z"
         style="font-style:normal;font-variant:normal;font-weight:300;font-stretch:normal;font-size:10.00147438px;font-family:comfortaa;-inkscape-font-specification:'comfortaa Light';text-align:center;text-anchor:middle;fill:#000000;fill-opacity:1;stroke-width:0.26789659"
         id="path4535"
         inkscape:connector-curvature="0" />
      <path
         d="m 76.568302,57.623514 q 0.03001,0.06001 0.03001,0.130019 0,0.120018 -0.09001,0.210031 -0.09001,0.09001 -0.210031,0.09001 -0.200029,0 -0.280041,-0.190028 l -0.740109,-1.770261 h -4.0706 l -0.740109,1.770261 q -0.07001,0.190028 -0.280041,0.190028 -0.140021,0 -0.220033,-0.09001 -0.08001,-0.09001 -0.08001,-0.210031 0,-0.07001 0.03001,-0.130019 l 3.030446,-7.171057 q 0.08001,-0.210031 0.290043,-0.210031 0.20003,0 0.290043,0.210031 z m -1.520224,-2.070305 -1.810267,-4.320637 -1.800265,4.320637 z"
         style="font-style:normal;font-variant:normal;font-weight:300;font-stretch:normal;font-size:10.00147438px;font-family:comfortaa;-inkscape-font-specification:'comfortaa Light';text-align:center;text-anchor:middle;fill:#000000;fill-opacity:1;stroke-width:0.26789659"
         id="path4537"
         inkscape:connector-curvature="0" />
      <path
         d="m 81.044903,50.142411 q 1.400206,0 2.470364,0.890131 0.09001,0.07001 0.09001,0.20003 0,0.120018 -0.08001,0.220032 -0.08001,0.09001 -0.220032,0.09001 -0.110016,0 -0.250037,-0.120018 -0.760112,-0.6801 -2.010296,-0.6801 -0.88013,0 -1.650244,0.470069 -0.760112,0.470069 -1.210178,1.260186 -0.450066,0.780115 -0.450066,1.670246 0,0.920136 0.440064,1.710252 0.450067,0.780115 1.210179,1.240183 0.770113,0.460068 1.660245,0.460068 1.180174,0 2.070305,-0.730108 0.07001,-0.05001 0.150022,-0.05001 0.120018,0 0.210031,0.09001 0.100015,0.09001 0.100015,0.220032 0,0.13002 -0.07001,0.210031 -0.860126,0.860127 -2.460362,0.860127 -1.050155,0 -1.950288,-0.540079 -0.900133,-0.550082 -1.430211,-1.470217 -0.530078,-0.930137 -0.530078,-2.000295 0,-1.070158 0.520077,-1.990293 0.530078,-0.920136 1.420209,-1.460216 0.900133,-0.550081 1.970291,-0.550081 z"
         style="font-style:normal;font-variant:normal;font-weight:300;font-stretch:normal;font-size:10.00147438px;font-family:comfortaa;-inkscape-font-specification:'comfortaa Light';text-align:center;text-anchor:middle;fill:#000000;fill-opacity:1;stroke-width:0.26789659"
         id="path4539"
         inkscape:connector-curvature="0" />
      <path
         d="m 85.811384,57.753533 q 0,0.130019 -0.09001,0.220033 -0.08001,0.08001 -0.210031,0.08001 -0.120018,0 -0.210031,-0.08001 -0.09001,-0.09001 -0.09001,-0.220033 V 50.54247 q 0,-0.130019 0.09001,-0.210031 0.09001,-0.09001 0.210031,-0.09001 0.130019,0 0.210031,0.09001 0.09001,0.08001 0.09001,0.210031 v 3.670541 l 3.880572,-3.880572 q 0.110016,-0.09001 0.230034,-0.09001 0.130019,0 0.210031,0.09001 0.09001,0.09001 0.09001,0.210031 0,0.110016 -0.09001,0.220033 l -2.870423,2.870423 2.900427,3.940581 q 0.06001,0.09001 0.06001,0.180026 0,0.120018 -0.09001,0.210031 -0.09001,0.09001 -0.20003,0.09001 -0.170025,0 -0.260038,-0.130019 l -2.85042,-3.850567 -1.010149,1.010149 z"
         style="font-style:normal;font-variant:normal;font-weight:300;font-stretch:normal;font-size:10.00147438px;font-family:comfortaa;-inkscape-font-specification:'comfortaa Light';text-align:center;text-anchor:middle;fill:#000000;fill-opacity:1;stroke-width:0.26789659"
         id="path4541"
         inkscape:connector-curvature="0" />
      <path
         d="m 102.39836,50.242426 q 0.13002,0 0.21003,0.09001 0.08,0.08001 0.08,0.220033 0,0.04001 -0.02,0.14002 l -2.0603,7.101047 q -0.04,0.120018 -0.13002,0.190028 -0.08,0.07001 -0.18003,0.07001 -0.12001,0 -0.20003,-0.07001 -0.08,-0.07001 -0.110011,-0.190028 L 98.287748,51.78265 96.6075,57.793536 q -0.100015,0.260038 -0.320047,0.260038 -0.110016,0 -0.200029,-0.07001 -0.08001,-0.08001 -0.110017,-0.190028 l -2.070305,-7.101047 q -0.02,-0.100014 -0.02,-0.130019 0,-0.140021 0.08001,-0.230034 0.08001,-0.09001 0.220032,-0.09001 0.230034,0 0.290043,0.230034 l 1.810267,6.260923 1.720254,-6.000885 q 0.02,-0.08001 0.100014,-0.130019 0.09001,-0.06001 0.180027,-0.06001 0.100015,0 0.180026,0.06001 0.08001,0.05001 0.110017,0.140021 l 1.720248,5.990883 1.81027,-6.290928 q 0.02,-0.09001 0.10002,-0.14002 0.08,-0.06001 0.19002,-0.06001 z"
         style="font-style:normal;font-variant:normal;font-weight:300;font-stretch:normal;font-size:10.00147438px;font-family:comfortaa;-inkscape-font-specification:'comfortaa Light';text-align:center;text-anchor:middle;fill:#000000;fill-opacity:1;stroke-width:0.26789659"
         id="path4543"
         inkscape:connector-curvature="0" />
      <path
         d="m 109.09435,57.453489 q 0.12002,0 0.21003,0.09001 0.09,0.09001 0.09,0.210031 0,0.130019 -0.09,0.220033 -0.09,0.08001 -0.21003,0.08001 h -4.81071 q -0.13002,0 -0.22003,-0.08001 -0.08,-0.09001 -0.08,-0.220033 v -7.21106 q 0,-0.130019 0.08,-0.210031 0.09,-0.09001 0.22003,-0.09001 h 4.81071 q 0.12002,0 0.21003,0.09001 0.09,0.08001 0.09,0.210031 0,0.120018 -0.09,0.210031 -0.09,0.09001 -0.21003,0.09001 h -4.51067 v 3.000443 h 3.31049 q 0.13002,0 0.21003,0.09001 0.09,0.08001 0.09,0.210031 0,0.130019 -0.09,0.220032 -0.08,0.09001 -0.21003,0.09001 h -3.31049 v 3.000442 z"
         style="font-style:normal;font-variant:normal;font-weight:300;font-stretch:normal;font-size:10.00147438px;font-family:comfortaa;-inkscape-font-specification:'comfortaa Light';text-align:center;text-anchor:middle;fill:#000000;fill-opacity:1;stroke-width:0.26789659"
         id="path4545"
         inkscape:connector-curvature="0" />
      <path
         d="m 113.59048,50.242426 q 0.55008,0 1.02015,0.250037 0.47007,0.240035 0.74011,0.670099 0.28004,0.430063 0.28004,0.970143 0,0.560082 -0.30005,1.010149 -0.30004,0.440064 -0.80011,0.660097 0.7001,0.190028 1.10016,0.710104 0.41006,0.510076 0.41006,1.270188 0,0.660097 -0.30005,1.180174 -0.29004,0.510075 -0.82012,0.800118 -0.52007,0.290042 -1.18017,0.290042 h -2.51037 q -0.18003,0 -0.29004,-0.07001 -0.10002,-0.08001 -0.10002,-0.230034 V 50.54247 q 0,-0.14002 0.08,-0.220032 0.09,-0.08001 0.22004,-0.08001 z m 0,3.300486 q 0.64009,0 1.04015,-0.390057 0.40006,-0.390058 0.40006,-1.02015 0,-0.61009 -0.40006,-0.95014 -0.39006,-0.340051 -1.04015,-0.340051 h -2.15032 v 2.700398 z m 0.15002,3.910577 q 0.49007,0 0.87013,-0.210031 0.39006,-0.220032 0.61009,-0.600088 0.22003,-0.380056 0.22003,-0.860127 0,-0.47007 -0.22003,-0.840124 -0.22003,-0.380056 -0.61009,-0.590087 -0.38006,-0.210031 -0.87013,-0.210031 h -2.30034 v 3.310488 z"
         style="font-style:normal;font-variant:normal;font-weight:300;font-stretch:normal;font-size:10.00147438px;font-family:comfortaa;-inkscape-font-specification:'comfortaa Light';text-align:center;text-anchor:middle;fill:#000000;fill-opacity:1;stroke-width:0.26789659"
         id="path4547"
         inkscape:connector-curvature="0" />
      <path
         d="m 122.62932,50.242426 q 1.13016,0 2.02029,0.500074 0.89014,0.500073 1.39021,1.390205 0.50007,0.880129 0.50007,2.010296 0,1.130167 -0.50007,2.020298 -0.50007,0.890131 -1.39021,1.390205 -0.89013,0.500073 -2.02029,0.500073 h -1.80027 q -0.13002,0 -0.22003,-0.08001 -0.08,-0.09001 -0.08,-0.220033 V 50.54247 q 0,-0.14002 0.08,-0.220032 0.09,-0.08001 0.22003,-0.08001 z m 0,7.271072 q 0.96014,0 1.71025,-0.430064 0.75011,-0.440064 1.17017,-1.210178 0.43006,-0.770114 0.43006,-1.730255 0,-0.960142 -0.43006,-1.720254 -0.42006,-0.770113 -1.17017,-1.200177 -0.75011,-0.440064 -1.71025,-0.440064 h -1.50023 v 6.730992 z"
         style="font-style:normal;font-variant:normal;font-weight:300;font-stretch:normal;font-size:10.00147438px;font-family:comfortaa;-inkscape-font-specification:'comfortaa Light';text-align:center;text-anchor:middle;fill:#000000;fill-opacity:1;stroke-width:0.26789659"
         id="path4549"
         inkscape:connector-curvature="0" />
      <path
         d="m 133.25807,57.453489 q 0.12002,0 0.21003,0.09001 0.09,0.09001 0.09,0.210031 0,0.130019 -0.09,0.220033 -0.09,0.08001 -0.21003,0.08001 h -4.81071 q -0.13002,0 -0.22003,-0.08001 -0.08,-0.09001 -0.08,-0.220033 v -7.21106 q 0,-0.130019 0.08,-0.210031 0.09,-0.09001 0.22003,-0.09001 h 4.81071 q 0.12002,0 0.21003,0.09001 0.09,0.08001 0.09,0.210031 0,0.120018 -0.09,0.210031 -0.09,0.09001 -0.21003,0.09001 h -4.51067 v 3.000443 h 3.31049 q 0.13002,0 0.21003,0.09001 0.09,0.08001 0.09,0.210031 0,0.130019 -0.09,0.220032 -0.08,0.09001 -0.21003,0.09001 h -3.31049 v 3.000442 z"
         style="font-style:normal;font-variant:normal;font-weight:300;font-stretch:normal;font-size:10.00147438px;font-family:comfortaa;-inkscape-font-specification:'comfortaa Light';text-align:center;text-anchor:middle;fill:#000000;fill-opacity:1;stroke-width:0.26789659"
         id="path4551"
         inkscape:connector-curvature="0" />
      <path
         d="m 140.56461,50.242426 q 0.12002,0 0.19003,0.08001 0.07,0.08001 0.07,0.210031 0,0.110016 -0.04,0.200029 l -2.99044,7.131051 q -0.09,0.190028 -0.27004,0.190028 -0.10001,0 -0.17002,-0.04 -0.06,-0.05001 -0.10002,-0.150023 l -3.00044,-7.131051 q -0.05,-0.130019 -0.05,-0.210031 0,-0.130019 0.09,-0.200029 0.09,-0.08001 0.22003,-0.08001 0.10001,0 0.17002,0.05001 0.07,0.05001 0.12002,0.160024 l 2.7304,6.540964 2.7004,-6.500958 q 0.05,-0.130019 0.13002,-0.190028 0.08,-0.06001 0.20003,-0.06001 z"
         style="font-style:normal;font-variant:normal;font-weight:300;font-stretch:normal;font-size:10.00147438px;font-family:comfortaa;-inkscape-font-specification:'comfortaa Light';text-align:center;text-anchor:middle;fill:#000000;fill-opacity:1;stroke-width:0.26789659"
         id="path4553"
         inkscape:connector-curvature="0" />
      <path
         d="m 147.1273,57.453489 q 0.12002,0 0.21003,0.09001 0.09,0.09001 0.09,0.210031 0,0.130019 -0.09,0.220033 -0.09,0.08001 -0.21003,0.08001 h -4.81071 q -0.13002,0 -0.22003,-0.08001 -0.08,-0.09001 -0.08,-0.220033 v -7.21106 q 0,-0.130019 0.08,-0.210031 0.09,-0.09001 0.22003,-0.09001 h 4.81071 q 0.12002,0 0.21003,0.09001 0.09,0.08001 0.09,0.210031 0,0.120018 -0.09,0.210031 -0.09,0.09001 -0.21003,0.09001 h -4.51066 v 3.000443 h 3.31048 q 0.13002,0 0.21004,0.09001 0.09,0.08001 0.09,0.210031 0,0.130019 -0.09,0.220032 -0.08,0.09001 -0.21004,0.09001 h -3.31048 v 3.000442 z"
         style="font-style:normal;font-variant:normal;font-weight:300;font-stretch:normal;font-size:10.00147438px;font-family:comfortaa;-inkscape-font-specification:'comfortaa Light';text-align:center;text-anchor:middle;fill:#000000;fill-opacity:1;stroke-width:0.26789659"
         id="path4555"
         inkscape:connector-curvature="0" />
      <path
         d="m 153.58372,57.513498 q 0.13002,0 0.21003,0.08001 0.09,0.07001 0.09,0.190028 0,0.120017 -0.09,0.200029 -0.08,0.07001 -0.21003,0.07001 h -4.41065 q -0.12002,0 -0.21003,-0.08001 -0.09,-0.09001 -0.09,-0.220033 V 50.54247 q 0,-0.130019 0.09,-0.210031 0.09,-0.09001 0.21003,-0.09001 0.13002,0 0.21003,0.09001 0.09,0.08001 0.09,0.210031 v 6.971028 z"
         style="font-style:normal;font-variant:normal;font-weight:300;font-stretch:normal;font-size:10.00147438px;font-family:comfortaa;-inkscape-font-specification:'comfortaa Light';text-align:center;text-anchor:middle;fill:#000000;fill-opacity:1;stroke-width:0.26789659"
         id="path4557"
         inkscape:connector-curvature="0" />
      <path
         d="m 158.05079,50.142411 q 1.12016,0 2.0303,0.530078 0.92013,0.520077 1.44021,1.440213 0.53008,0.910134 0.53008,2.030299 0,1.130167 -0.53008,2.050302 -0.52008,0.910134 -1.44021,1.440212 -0.91014,0.520077 -2.0303,0.520077 -1.13017,0 -2.05031,-0.520077 -0.91013,-0.530078 -1.44021,-1.440212 -0.52008,-0.920135 -0.52008,-2.050302 0,-1.120165 0.52008,-2.030299 0.53008,-0.920136 1.44021,-1.440213 0.92014,-0.530078 2.05031,-0.530078 z m 0,0.600089 q -0.96015,0 -1.74026,0.450066 -0.78012,0.440065 -1.23018,1.22018 -0.44007,0.780115 -0.44007,1.730255 0,0.960141 0.44007,1.740256 0.45006,0.780115 1.23018,1.230182 0.78011,0.440065 1.74026,0.440065 0.95014,0 1.73025,-0.440065 0.78012,-0.450067 1.22018,-1.230182 0.45007,-0.780115 0.45007,-1.740256 0,-0.95014 -0.45007,-1.730255 -0.44006,-0.780115 -1.22018,-1.22018 -0.78011,-0.450066 -1.73025,-0.450066 z"
         style="font-style:normal;font-variant:normal;font-weight:300;font-stretch:normal;font-size:10.00147438px;font-family:comfortaa;-inkscape-font-specification:'comfortaa Light';text-align:center;text-anchor:middle;fill:#000000;fill-opacity:1;stroke-width:0.26789659"
         id="path4559"
         inkscape:connector-curvature="0" />
      <path
         d="m 164.26045,57.753533 q 0,0.130019 -0.08,0.220033 -0.08,0.08001 -0.22003,0.08001 -0.13002,0 -0.22004,-0.08001 -0.08,-0.09001 -0.08,-0.220033 V 50.54247 q 0,-0.14002 0.08,-0.220032 0.09,-0.08001 0.22004,-0.08001 h 2.00029 q 0.72011,0 1.29019,0.320047 0.57009,0.320047 0.89013,0.890131 0.32005,0.570084 0.32005,1.290191 0,0.730107 -0.32005,1.300191 -0.32004,0.570084 -0.89013,0.890131 -0.57008,0.320048 -1.29019,0.320048 h -1.70025 z m 1.70025,-3.100457 q 0.55008,0 0.98015,-0.240035 0.43006,-0.250037 0.67009,-0.680101 0.25004,-0.440064 0.25004,-0.990145 0,-0.550082 -0.25004,-0.980145 -0.24003,-0.430063 -0.67009,-0.670099 -0.43007,-0.250037 -0.98015,-0.250037 h -1.70025 v 3.810562 z"
         style="font-style:normal;font-variant:normal;font-weight:300;font-stretch:normal;font-size:10.00147438px;font-family:comfortaa;-inkscape-font-specification:'comfortaa Light';text-align:center;text-anchor:middle;fill:#000000;fill-opacity:1;stroke-width:0.26789659"
         id="path4561"
         inkscape:connector-curvature="0" />
      <path
         d="m 174.82669,57.453489 q 0.12002,0 0.21003,0.09001 0.09,0.09001 0.09,0.210031 0,0.130019 -0.09,0.220033 -0.09,0.08001 -0.21003,0.08001 h -4.81071 q -0.13002,0 -0.22003,-0.08001 -0.08,-0.09001 -0.08,-0.220033 v -7.21106 q 0,-0.130019 0.08,-0.210031 0.09,-0.09001 0.22003,-0.09001 h 4.81071 q 0.12002,0 0.21003,0.09001 0.09,0.08001 0.09,0.210031 0,0.120018 -0.09,0.210031 -0.09,0.09001 -0.21003,0.09001 h -4.51067 v 3.000443 h 3.31049 q 0.13002,0 0.21003,0.09001 0.09,0.08001 0.09,0.210031 0,0.130019 -0.09,0.220032 -0.08,0.09001 -0.21003,0.09001 h -3.31049 v 3.000442 z"
         style="font-style:normal;font-variant:normal;font-weight:300;font-stretch:normal;font-size:10.00147438px;font-family:comfortaa;-inkscape-font-specification:'comfortaa Light';text-align:center;text-anchor:middle;fill:#000000;fill-opacity:1;stroke-width:0.26789659"
         id="path4563"
         inkscape:connector-curvature="0" />
      <path
         d="m 181.32313,57.59351 q 0.08,0.14002 0.08,0.230034 0,0.110016 -0.09,0.170025 -0.08,0.06001 -0.24003,0.06001 -0.10002,0 -0.16002,-0.04 -0.06,-0.04001 -0.11002,-0.120018 l -1.84027,-2.940434 h -0.18003 -1.61024 v 2.800413 q 0,0.130019 -0.08,0.220033 -0.08,0.08001 -0.22003,0.08001 -0.13002,0 -0.22003,-0.08001 -0.08,-0.09001 -0.08,-0.220033 v -7.21107 q 0,-0.14002 0.08,-0.220032 0.09,-0.08001 0.22003,-0.08001 h 1.91028 q 0.72011,0 1.29019,0.300044 0.57009,0.300044 0.89013,0.840124 0.32005,0.54008 0.32005,1.230181 0,0.820121 -0.46007,1.42021 -0.45006,0.590087 -1.22018,0.810119 z m -2.54038,-3.240478 q 0.55008,0 0.98015,-0.220033 0.43006,-0.220032 0.67009,-0.620091 0.25004,-0.400059 0.25004,-0.900133 0,-0.510075 -0.25004,-0.910134 -0.24003,-0.41006 -0.67009,-0.630093 -0.43007,-0.230034 -0.98015,-0.230034 h -1.61024 v 3.510518 z"
         style="font-style:normal;font-variant:normal;font-weight:300;font-stretch:normal;font-size:10.00147438px;font-family:comfortaa;-inkscape-font-specification:'comfortaa Light';text-align:center;text-anchor:middle;fill:#000000;fill-opacity:1;stroke-width:0.26789659"
         id="path4565"
         inkscape:connector-curvature="0" />
    </g>
  </g>
</svg>
